<?xml version="1.0" standalone="yes"?>
<svg xmlns="http://www.w3.org/2000/svg" width="96" height="96">
<path style="fill:#030205; stroke:none;" d="M0 0L0 41L1 41C2.17285 27.5664 10.914 18.086 20 9L20 14L21 14C21.6925 4.89664 33.0986 1.68985 41 1C30.2501 -3.51085 11.6957 0 0 0z"/>
<path style="fill:#56aa69; stroke:none;" d="M41.6667 0.333336L42.3333 0.666664L41.6667 0.333336z"/>
<path style="fill:#f8f0f0; stroke:none;" d="M21 13L22 13L22 9L30 9L31 9L31 13L32 13L32 9L36 9L37 15L17 12C-2.07543 25.5507 -3.86988 53.8997 7 73L8 73L16 45L13 45L30 31C26.3055 44.0192 22.6079 57.0385 18.7199 70C17.2448 74.9176 14.1868 80.7874 18 85C27.4264 66.2581 64.8253 80.9091 67 56L62 56L75 31C58.716 31.3379 36.4864 36.8994 41 58L50.7022 41.5139L62 38C58.8985 53.0266 56.1928 65.0794 40 69.1265C36.2876 70.0544 30.689 72.3157 27.3333 69.3958C24.2097 66.6779 26.4328 62.2199 27.4136 59C30.0102 50.4751 31.9997 34.3756 39.2137 28.5633C49.9892 19.8815 71.1615 21.8166 84 17L78 11L77 11L77 14C71.3999 -0.774155 48.1134 -1.76094 35 2.03935C28.7751 3.84335 21.5798 5.66173 21 13z"/>
<path style="fill:#56aa69; stroke:none;" d="M53.6667 0.333336L54.3333 0.666664L53.6667 0.333336z"/>
<path style="fill:#030205; stroke:none;" d="M55 0L55 1C74.595 2.71077 94.096 22.2164 95 42L96 42L96 0L55 0z"/>
<path style="fill:#56aa69; stroke:none;" d="M36 1L37 2L36 1M59 1L60 2L59 1M33 2L34 3L33 2M62 2L63 3L62 2M30 3L31 4L30 3M65 3L66 4L65 3M22 7L23 8L22 7M73 7L74 8L73 7M19 9L20 10L19 9z"/>
<path style="fill:#030205; stroke:none;" d="M22 9L22 10L25 10L22 9z"/>
<path style="fill:#56aa69; stroke:none;" d="M25 9L26 13L23 13L23 10L22 10L20 15L22 13L37 15L37 14L33 13L33 9L32 9L32 13L31 13L25 9z"/>
<path style="fill:#030205; stroke:none;" d="M27.3333 9.66666L27.6667 10.3333L27.3333 9.66666M30.3333 9.66666L30.6667 10.3333L30.3333 9.66666M33 9L33 10L35 14L36 14L36 9L33 9M48.3333 9.66666L48.6667 10.3333L48.3333 9.66666M51.3333 9.66666L51.6667 10.3333L51.3333 9.66666z"/>
<path style="fill:#56aa69; stroke:none;" d="M53 9L53 13L52 13C49.9728 10.6986 48.6172 11.7402 47 14C50.5946 13.882 54.4392 13.392 53 9z"/>
<path style="fill:#030205; stroke:none;" d="M56 9L57 10L56 9z"/>
<path style="fill:#56aa69; stroke:none;" d="M67 9L67 14L68 14L67 9z"/>
<path style="fill:#030205; stroke:none;" d="M70 9L71 10L70 9z"/>
<path style="fill:#f8f0f0; stroke:none;" d="M18 10L18 13L20 13L20 10L18 10M23 10L23 11L26 11L23 10M34 10L33 13L34 10z"/>
<path style="fill:#56aa69; stroke:none;" d="M38 10L39 14L40 14L41 10L38 10M43 10L44 14L43 10z"/>
<path style="fill:#030205; stroke:none;" d="M55 10L54 12L55 10z"/>
<path style="fill:#56aa69; stroke:none;" d="M59 10L60 14L62 14L63 13L59 10M62 10L63 11L62 10M69 10L69 13L70 13L69 10M72 10L75 14L72 10M74 10L75 11L74 10M76.6667 10.3333L77.3333 10.6667L76.6667 10.3333M17 11L16 14L20 14L20 13L17 11z"/>
<path style="fill:#030205; stroke:none;" d="M22 11L23 12L22 11M24 11L25 12L24 11z"/>
<path style="fill:#f8f0f0; stroke:none;" d="M43 11L44 12L43 11z"/>
<path style="fill:#030205; stroke:none;" d="M44 11L44 14L45 14L44 11z"/>
<path style="fill:#56aa69; stroke:none;" d="M55.3333 11.6667L55.6667 12.3333L55.3333 11.6667z"/>
<path style="fill:#030205; stroke:none;" d="M59 11L60 12L59 11M62 11L63 12L62 11M68 11L69 12L68 11M74 11L75 12L74 11M76 11L77 12L76 11z"/>
<path style="fill:#f8f0f0; stroke:none;" d="M23 12L23 13L26 13L23 12z"/>
<path style="fill:#030205; stroke:none;" d="M72.3333 12.6667L72.6667 13.3333L72.3333 12.6667z"/>
<path style="fill:#56aa69; stroke:none;" d="M76 12L77 13L76 12M78 12L80 14L78 12z"/>
<path style="fill:#f8f0f0; stroke:none;" d="M79 12L80 13L79 12z"/>
<path style="fill:#030205; stroke:none;" d="M17 13L18 14L17 13M22 13L23 14L22 13M32 13L33 14L32 13M53 13L54 14L53 13z"/>
<path style="fill:#56aa69; stroke:none;" d="M56 13L57 14L56 13z"/>
<path style="fill:#030205; stroke:none;" d="M59 13L60 14L59 13M62 13L63 14L62 13z"/>
<path style="fill:#56aa69; stroke:none;" d="M64 13L65 14L64 13M70 13L71 14L70 13z"/>
<path style="fill:#030205; stroke:none;" d="M76 13L77 14L76 13M78 13L79 14L78 13z"/>
<path style="fill:#f20d36; stroke:none;" d="M62 38C46.873 39.2355 50.8787 50.4972 41 58C37.8752 37.2745 58.3471 31.3456 75 31C73.5057 38.24 72.1403 43.1602 64 44L62 56L67 56C63.2409 81.4355 24.9952 64.9182 18 86C25.6678 90.5008 34.9475 86.1397 43 84.1265C51.3502 82.039 63.7231 81.0219 70.892 76.1458C77.8851 71.3893 80.6195 54.3566 78 47C83.5264 43.6739 94.5169 20.5733 83.8951 17.9035C80.4487 17.0373 75.382 19.1035 72 19.8812C62.9808 21.955 44.1365 22.4431 37.6489 29.419C33.1139 34.2954 31.9234 43.7941 29.9753 50C28.6242 54.3041 23.4247 64.3127 26.0679 68.5664C28.822 72.9984 36.1919 70.13 40 69.2346C56.0826 65.4528 59.9153 53.4691 62 38z"/>
<path style="fill:#56aa69; stroke:none;" d="M9 19L10 20L9 19M69 20L70 21L69 20M7 22L8 23L7 22M60 22L61 23L60 22M51 24L52 25L51 24M89 24L90 25L89 24M46 25L47 26L46 25z"/>
<path style="fill:#f8f0f0; stroke:none;" d="M88 25C86.1425 33.1025 84.4251 41.3204 78 47C85.577 78.0765 48.5433 85.9471 25 88C28.1422 93.4351 36.1858 94.4945 42 95.4097C60.3527 98.2986 87.1448 86.9362 91 67L82 70L89 44L90 44L96 51L91 41L95 42L90 25L88 25z"/>
<path style="fill:#56aa69; stroke:none;" d="M39 27L40 28L39 27M3 30L4 31L3 30M92 30L93 31L92 30z"/>
<path style="fill:#f20d36; stroke:none;" d="M13 43L16 45C12.5715 55.7221 2.52161 75.6571 16 82L30 31L13 43z"/>
<path style="fill:#56aa69; stroke:none;" d="M68 31L69 32L68 31M64 32L65 33L64 32M25 33L26 34L25 33M92 33L94 38L95 38L92 33M55 34L56 35L55 34M1 36L2 37L1 36z"/>
<path style="fill:#a1f91b; stroke:none;" d="M93 36L94 37L93 36z"/>
<path style="fill:#56aa69; stroke:none;" d="M20 37L21 38L20 37z"/>
<path style="fill:#a1f91b; stroke:none;" d="M94 38L95 39L94 38z"/>
<path style="fill:#56aa69; stroke:none;" d="M53 39L54 40L53 39M50 40L51 41L50 40M0.333333 41.6667L0.666667 42.3333L0.333333 41.6667M15 41L16 42L15 41M72 41L73 42L72 41z"/>
<path style="fill:#a1f91b; stroke:none;" d="M91 41L95 50C96.5886 45.9193 95.1715 42.3515 91 41z"/>
<path style="fill:#56aa69; stroke:none;" d="M32 42L33 43L32 42M49 42L50 43L49 42M95 42L95 45L96 45L95 42M67.6667 43.3333L68.3333 43.6667L67.6667 43.3333M13 44L14 45L13 44z"/>
<path style="fill:#a1f91b; stroke:none;" d="M89 44L82 70C93.5449 68.4121 93.6079 60.71 96 51L89 44z"/>
<path style="fill:#56aa69; stroke:none;" d="M48 45L49 46L48 45M47 48L48 49L47 48M59 48L60 49L59 48M95.3333 52.6667L95.6667 53.3333L95.3333 52.6667M0.333333 53.6667L0.666667 54.3333L0.333333 53.6667M40 53L41 54L40 53M45 54L46 55L45 54z"/>
<path style="fill:#030205; stroke:none;" d="M95 54C94.0873 73.9733 74.7685 93.2741 55 95L55 96L96 96C96 84.0427 99.6107 64.9878 95 54M0 55L0 96L41 96L41 95C17.1261 92.9156 8.91873 73.4086 0 55z"/>
<path style="fill:#56aa69; stroke:none;" d="M78 57L79 58L78 57M94.3333 58.6667L94.6667 59.3333L94.3333 58.6667M1 59L2 60L1 59M93 62L94 63L93 62M20 64L21 65L20 64M25 64L26 65L25 64M3 65L4 66L3 65M51 65L52 66L51 65M92 65L93 66L92 65M19 67L20 68L19 67M91 67L92 68L91 67M61 68L62 69L61 68M38 69L39 70L38 69M27 70L28 71L27 70M53 70L54 71L53 70M8 72L9 73L8 72M7 73L8 74L7 73M41 73L42 74L41 73M88 73L89 74L88 73M17 74L18 75L17 74M29 76L30 77L29 76M86 76L87 77L86 76M24 77L25 78L24 77M68 77L69 78L68 77M21 78L22 79L21 78M64 78L65 79L64 78M56 80L57 81L56 80M19 81L20 82L19 81M45 83L46 84L45 83M18 84L19 85L18 84M37 85L38 86L37 85M76 86L77 87L76 86M29 87L30 88L29 87M24.3333 88.6667L24.6667 89.3333L24.3333 88.6667M73 88L74 89L73 88M30 92L31 93L30 92M65 92L66 93L65 92M33 93L34 94L33 93M62 93L63 94L62 93M36 94L37 95L36 94M59 94L60 95L59 94M41.6667 95.3333L42.3333 95.6667L41.6667 95.3333M53.6667 95.3333L54.3333 95.6667L53.6667 95.3333z"/>
</svg>
